<?xml version="1.0" encoding="utf-8"?>
<!-- Generator: Adobe Illustrator 16.0.0, SVG Export Plug-In . SVG Version: 6.00 Build 0)  -->
<!DOCTYPE svg PUBLIC "-//W3C//DTD SVG 1.1//EN" "http://www.w3.org/Graphics/SVG/1.1/DTD/svg11.dtd">
<svg version="1.1" id="Layer_1" xmlns="http://www.w3.org/2000/svg" xmlns:xlink="http://www.w3.org/1999/xlink" x="0px" y="0px"
	 width="555px" height="781px" viewBox="0 0 555 781" enable-background="new 0 0 555 781" xml:space="preserve">
<image overflow="visible" enable-background="new    " width="555" height="781" xlink:href="muscle-man.jpg" >
</image>
<path fill="none" stroke="#000000" stroke-width="5" stroke-miterlimit="10" d="M94.691,155.097
	c-20.317,39.331,48.417,92.208,67.23,47.383C183.064,152.101,135.891,117.029,94.691,155.097z"/>
<path fill="none" stroke="#000000" stroke-width="5" stroke-miterlimit="10" d="M162.673,394.837
	c-15.864-2.7-17.436-27.3-20.74-40.116c-4.812-18.664-7.426-35.261-7.466-54.592c-0.034-16.125-4.187-32.254-4.473-48.431
	c-0.21-11.879-2.722-31.974,11.018-37.342c8.293-3.24,18.01-3.583,26.825-3.292c6.906,0.228,13.668,0.08,20.417,1.97
	c15.421,4.32,14.734,21.916,14.369,35.217c-0.476,17.307-4.523,34.634-4.559,51.878c-0.042,19.989-2.816,33.448-10.447,51.783
	C183.671,361.393,175.381,393.455,162.673,394.837z"/>
</svg>
